<svg id="Capa_1" enable-background="new 0 0 512 512" height="512" viewBox="0 0 512 512" width="512" xmlns="http://www.w3.org/2000/svg"><g><path d="m444.784 511.292c-17.587 0-35.251-6.726-48.646-20.122l-72.141-72.141-204.173-144.644c-11.317-8.018-17.26-21.611-15.509-35.474.346-2.74.763-5.46 1.248-8.153l-16.714-5.571c-1.088-.363-2.079-.97-2.896-1.776l-83.72-82.584c-2.949-2.909-2.981-7.657-.072-10.606 2.908-2.949 7.657-2.981 10.606-.072l40 39.458 116.673-116.673-39.928-39.386c-2.949-2.909-2.981-7.657-.072-10.606 2.908-2.949 7.657-2.981 10.606-.072l81.751 80.642c2.949 2.909 2.981 7.657.072 10.606-2.909 2.948-7.658 2.98-10.606.072l-31.145-30.722-10.381 10.382 11.303 11.304c2.929 2.929 2.929 7.678 0 10.606-2.929 2.929-7.678 2.93-10.606 0l-11.304-11.303-10.607 10.606 11.303 11.303c2.929 2.929 2.929 7.678 0 10.606-2.929 2.929-7.678 2.929-10.606 0l-11.303-11.303-10.606 10.607 11.303 11.303c2.929 2.929 2.929 7.677 0 10.606s-7.678 2.93-10.606 0l-11.304-11.303-10.606 10.606 11.303 11.304c2.929 2.929 2.929 7.678 0 10.606-2.929 2.929-7.678 2.929-10.606 0l-11.303-11.303-10.606 10.606 11.303 11.303c2.929 2.929 2.929 7.678 0 10.606-2.929 2.929-7.678 2.929-10.606 0l-11.306-11.3-10.831 10.831 31.798 31.367 13.698 4.566c16.758-59.467 67.62-104.259 130.395-112.187 13.864-1.752 27.456 4.192 35.474 15.509l69.692 98.375c2.394 3.38 1.595 8.061-1.785 10.455-3.378 2.396-8.06 1.596-10.456-1.784l-69.691-98.374c-4.811-6.791-12.993-10.354-21.355-9.298-1.756.222-3.5.475-5.234.76l25.496 76.488c6.198 18.594 1.439 38.754-12.42 52.614-13.86 13.86-34.021 18.619-52.614 12.421l-35.904-11.968c-3.93-1.31-6.053-5.558-4.744-9.487 1.31-3.929 5.557-6.053 9.487-4.744l35.904 11.968c13.369 4.457 27.3 1.167 37.264-8.797 9.964-9.965 13.253-23.896 8.796-37.264l-25.998-77.996c-47.602 13.158-84.9 50.457-98.059 98.059l16.119 5.373c3.93 1.31 6.053 5.557 4.744 9.487-1.31 3.929-5.558 6.053-9.487 4.744l-14.611-4.871c-.285 1.735-.539 3.479-.76 5.234-1.056 8.361 2.507 16.543 9.299 21.355l204.691 145.011c.345.245.669.518.968.817l72.59 72.59c20.554 20.554 53.921 21.059 74.381 1.124 10.145-9.885 15.782-23.122 15.873-37.272.092-14.153-5.369-27.458-15.375-37.465l-73.222-73.224c-.299-.299-.572-.623-.817-.968l-57.862-81.676c-2.395-3.38-1.596-8.061 1.784-10.456 3.38-2.393 8.061-1.596 10.456 1.785l57.495 81.157 72.773 72.773c12.866 12.866 19.887 29.972 19.769 48.169-.118 18.193-7.365 35.211-20.405 47.918-12.922 12.593-29.829 18.862-46.809 18.863zm-167.74-212.325c-12.407 0-22.5-10.093-22.5-22.5s10.093-22.5 22.5-22.5 22.5 10.093 22.5 22.5-10.093 22.5-22.5 22.5zm0-30c-4.135 0-7.5 3.365-7.5 7.5 0 4.136 3.365 7.5 7.5 7.5 4.136 0 7.5-3.364 7.5-7.5 0-4.135-3.364-7.5-7.5-7.5zm-223.981-123.977c-1.86 0-3.722-.687-5.174-2.071l-24.352-23.215c-2.998-2.858-3.111-7.606-.253-10.604 2.859-2.998 7.605-3.11 10.604-.253l24.352 23.215c2.998 2.858 3.111 7.606.253 10.604-1.474 1.544-3.45 2.324-5.43 2.324zm21.213-21.213c-1.86 0-3.722-.687-5.174-2.072l-24.351-23.215c-2.998-2.858-3.111-7.605-.253-10.604 2.859-2.998 7.606-3.111 10.604-.253l24.351 23.215c2.998 2.858 3.111 7.605.253 10.604-1.474 1.546-3.45 2.325-5.43 2.325zm21.214-21.214c-1.86 0-3.722-.687-5.174-2.072l-24.352-23.215c-2.998-2.858-3.111-7.605-.253-10.604 2.858-2.998 7.606-3.111 10.604-.253l24.351 23.215c2.998 2.858 3.111 7.605.253 10.604-1.474 1.547-3.45 2.325-5.429 2.325zm21.213-21.213c-1.86 0-3.722-.687-5.174-2.072l-24.352-23.215c-2.998-2.858-3.111-7.605-.253-10.604s7.606-3.111 10.604-.253l24.351 23.215c2.998 2.858 3.111 7.605.253 10.604-1.474 1.546-3.45 2.325-5.429 2.325zm21.213-21.213c-1.86 0-3.722-.687-5.174-2.072l-24.351-23.215c-2.998-2.858-3.111-7.605-.253-10.604 2.859-2.998 7.606-3.111 10.604-.253l24.351 23.215c2.998 2.858 3.111 7.605.253 10.604-1.474 1.546-3.451 2.325-5.43 2.325z"/></g></svg>